HIERARCHY
ROOT Hips
{
	OFFSET -0.001795 -0.223333 0.028219
	CHANNELS 6 Xposition Yposition Zposition Zrotation Yrotation Xrotation 
	JOINT LeftUpLeg
	{
		OFFSET 0.069520 -0.091406 -0.006815
		CHANNELS 3 Zrotation Yrotation Xrotation
		JOINT LeftLeg
		{
			OFFSET 0.034277 -0.375199 -0.004496
			CHANNELS 3 Zrotation Yrotation Xrotation
			JOINT LeftFoot
			{
				OFFSET -0.013596 -0.397961 -0.043693
				CHANNELS 3 Zrotation Yrotation Xrotation
				JOINT LeftToe
				{
					OFFSET 0.026358 -0.055791 0.119288
					CHANNELS 3 Zrotation Yrotation Xrotation
					End Site
					{
						OFFSET 0.000000 0.000000 0.000000
					}
				}
			}
		}
	}
	JOINT RightUpLeg
	{
		OFFSET -0.067670 -0.090522 -0.004320
		CHANNELS 3 Zrotation Yrotation Xrotation
		JOINT RightLeg
		{
			OFFSET -0.038290 -0.382569 -0.008850
			CHANNELS 3 Zrotation Yrotation Xrotation
			JOINT RightFoot
			{
				OFFSET 0.015774 -0.398415 -0.042312
				CHANNELS 3 Zrotation Yrotation Xrotation
				JOINT RightToe
				{
					OFFSET -0.025372 -0.048144 0.123348
					CHANNELS 3 Zrotation Yrotation Xrotation
					End Site
					{
						OFFSET 0.000000 0.000000 0.000000
					}
				}
			}
		}
	}
	JOINT Spine
	{
		OFFSET -0.002533 0.108963 -0.026696
		CHANNELS 3 Zrotation Yrotation Xrotation
		JOINT Spine1
		{
			OFFSET 0.005487 0.135180 0.001092
			CHANNELS 3 Zrotation Yrotation Xrotation
			JOINT Spine2
			{
				OFFSET 0.001457 0.052922 0.025425
				CHANNELS 3 Zrotation Yrotation Xrotation
				JOINT Neck
				{
					OFFSET -0.002778 0.213870 -0.042857
					CHANNELS 3 Zrotation Yrotation Xrotation
					JOINT Head
					{
						OFFSET 0.005152 0.064970 0.051349
						CHANNELS 3 Zrotation Yrotation Xrotation
						End Site
						{
							OFFSET 0.000000 0.000000 0.000000
						}
					}
				}
				JOINT LeftShoulder
				{
					OFFSET 0.078845 0.121749 -0.034090
					CHANNELS 3 Zrotation Yrotation Xrotation
					JOINT LeftArm
					{
						OFFSET 0.090977 0.030469 -0.008868
						CHANNELS 3 Zrotation Yrotation Xrotation
						JOINT LeftForeArm
						{
							OFFSET 0.259612 -0.012772 -0.027456
							CHANNELS 3 Zrotation Yrotation Xrotation
							JOINT LeftHand
							{
								OFFSET 0.249234 0.008986 -0.001171
								CHANNELS 3 Zrotation Yrotation Xrotation
								End Site
								{
									OFFSET 0.000000 0.000000 0.000000
								}
							}
						}
					}
				}
				JOINT RightShoulder
				{
					OFFSET -0.081759 0.118833 -0.038615
					CHANNELS 3 Zrotation Yrotation Xrotation
					JOINT RightArm
					{
						OFFSET -0.096012 0.032551 -0.009143
						CHANNELS 3 Zrotation Yrotation Xrotation
						JOINT RightForeArm
						{
							OFFSET -0.253742 -0.013329 -0.021401
							CHANNELS 3 Zrotation Yrotation Xrotation
							JOINT RightHand
							{
								OFFSET -0.255298 0.007772 -0.005559
								CHANNELS 3 Zrotation Yrotation Xrotation
								End Site
								{
									OFFSET 0.000000 0.000000 0.000000
								}
							}
						}
					}
				}
			}
		}
	}
}
MOTION
Frames: 7
Frame Time: 0.050000
-0.025351 0.906908 -1.739850 -2.350006 -0.159081 -6.757183 4.876391 0.035456 0.561996 -0.053707 -1.422244 37.108521 -0.266329 -0.735262 -0.335854 0.000000 0.000000 0.000000 -2.004275 2.177058 -25.670308 -0.353288 0.525580 11.231690 1.183016 -6.725487 24.810432 0.000000 0.000000 0.000000 -4.694804 -0.053709 29.798845 13.633602 -3.131983 -22.632115 -3.123788 -5.203425 25.931074 0.067237 0.846864 -29.837350 0.000000 0.000000 0.000000 -25.560849 -0.713975 0.584258 -47.650074 -7.759260 -5.488001 -10.129590 -43.982380 7.281375 0.000000 0.000000 0.000000 18.521377 3.206570 -0.540799 51.434698 -10.393361 -11.463262 9.936284 32.132064 3.810869 0.000000 0.000000 0.000000 
-0.018729 0.910061 -1.793739 -3.016819 -1.649755 -7.898038 5.266119 0.030295 -0.205329 -0.870965 -0.755735 34.498568 1.095619 1.421068 -2.146143 0.000000 0.000000 0.000000 -2.025096 2.123419 -24.209499 0.533718 0.295060 9.425280 -2.303223 -11.813323 23.336026 0.000000 0.000000 0.000000 -6.074949 0.400739 30.083167 12.709053 -3.011848 -22.017886 -1.261296 -5.290132 26.398631 -0.918028 1.163500 -27.925503 0.000000 0.000000 0.000000 -24.077882 -0.809533 0.967602 -47.258706 -10.033943 -4.656407 -9.431789 -42.391494 6.790181 0.000000 0.000000 0.000000 15.681858 2.851164 -0.616359 54.361525 -11.118989 -12.640833 12.164401 34.667293 4.784098 0.000000 0.000000 0.000000 
-0.014697 0.922378 -1.843056 -3.295434 -2.583676 -7.758680 5.453606 -0.019334 -1.641192 -2.223786 -0.005168 30.410970 2.494621 5.253683 -0.097391 0.000000 0.000000 0.000000 -2.452737 2.091695 -24.242203 2.459265 0.098528 15.319004 -6.154006 -17.337639 20.776420 0.000000 0.000000 0.000000 -7.114394 0.692855 28.585756 13.436372 -3.308422 -21.446719 -1.195534 -5.225384 27.012664 -1.554240 1.478069 -28.686370 0.000000 0.000000 0.000000 -24.544317 -0.559727 1.047089 -46.804671 -9.889105 -4.853799 -9.082728 -42.635529 6.814468 0.000000 0.000000 0.000000 13.993445 2.674031 -0.582749 55.293490 -11.544862 -13.200559 16.488444 37.317227 6.576369 0.000000 0.000000 0.000000 
-0.013261 0.937498 -1.888905 -3.627042 -4.027973 -7.527304 5.338644 -0.034282 -2.280707 -2.579826 0.273137 24.996878 3.924746 9.291844 4.506922 0.000000 0.000000 0.000000 -2.640477 2.002014 -22.897762 4.589031 -0.204127 24.330671 -6.400871 -17.817057 19.515364 0.000000 0.000000 0.000000 -7.824343 0.835097 25.449338 13.396544 -3.419321 -20.690993 -1.002444 -4.856713 27.767920 -2.141929 1.718485 -28.614669 0.000000 0.000000 0.000000 -23.947861 0.097142 0.829847 -47.439087 -9.368530 -5.158189 -10.990223 -41.753303 7.489722 0.000000 0.000000 0.000000 12.860835 3.523638 -0.127374 55.796897 -11.869407 -13.607633 19.519739 39.787609 8.105343 0.000000 0.000000 0.000000 
-0.014448 0.948344 -1.933374 -3.849020 -3.362533 -7.580647 6.017324 -0.068860 -3.552231 -2.126994 0.061857 21.492714 2.043912 6.701349 7.949979 0.000000 0.000000 0.000000 -3.617236 1.514351 -19.658676 5.702400 -0.524559 34.224910 -6.308377 -17.414926 17.784040 0.000000 0.000000 0.000000 -7.856706 0.710565 23.566106 12.960891 -3.505504 -19.190591 -0.276624 -5.716791 26.800100 -3.128950 2.173945 -25.877194 0.000000 0.000000 0.000000 -24.076103 0.921478 0.412772 -47.978688 -7.612653 -5.753883 -13.033177 -40.734802 8.083280 0.000000 0.000000 0.000000 11.079532 4.025650 0.197998 56.692196 -11.426583 -13.622822 21.737239 43.256936 9.678137 0.000000 0.000000 0.000000 
-0.018052 0.952847 -1.978706 -3.738843 -2.125301 -7.316633 5.771601 -0.208704 -6.275947 -1.706651 -0.127006 19.992166 1.728367 6.819880 10.119109 0.000000 0.000000 0.000000 -4.298722 0.990019 -14.388769 6.152707 -0.895517 43.231356 -5.913861 -16.420938 15.311494 0.000000 0.000000 0.000000 -8.853565 0.736873 21.183040 13.347592 -3.736319 -18.238593 -0.241624 -5.247313 26.573873 -2.172634 1.763193 -24.990703 0.000000 0.000000 0.000000 -23.654421 2.003215 -0.618228 -48.591468 -4.984437 -6.631788 -15.215992 -39.597502 8.530302 0.000000 0.000000 0.000000 11.846448 3.994772 0.262590 54.571452 -11.276080 -12.835592 22.937113 44.655637 10.617796 0.000000 0.000000 0.000000 
-0.023580 0.948433 -2.026551 -2.951292 -1.364368 -7.015438 5.226632 -0.434236 -10.253518 -1.678209 -0.185191 20.730016 1.370457 6.492757 10.914246 0.000000 0.000000 0.000000 -5.243232 0.519117 -8.375877 4.998780 -0.377513 50.244314 -4.240550 -13.505718 15.100342 0.000000 0.000000 0.000000 -10.166456 0.879763 19.834425 12.886074 -3.497459 -18.724487 0.752745 -4.274091 27.016788 -1.941763 1.778909 -22.654102 0.000000 0.000000 0.000000 -24.049345 2.405391 -1.249371 -47.789749 -2.773101 -7.321624 -18.033333 -38.360627 9.089949 0.000000 0.000000 0.000000 12.237388 4.124895 0.505463 53.426683 -11.567152 -12.651428 23.590864 46.523345 11.615915 0.000000 0.000000 0.000000 
